# xmcd
#
# Track frame offsets:
# 183
# 17435
# 34905
# 47063
# 76050
# 95968
# 112873
# 135990
# 155798
# 156393
# 161165
#
# Disc length: 2378 seconds
#
# Revision: 2
# Processed by: cddbd v1.5.2PL0 Copyright (c) Steve Scherf et al.
# Submitted via: Audio-CD-Archiv 4.00.530
#
DISCID=8509480b
DTITLE=Little Feat (1975) - The Last Record Album
DYEAR=1978
DGENRE=blues
TTITLE0=Romance Dance
TTITLE1=All that you dream
TTITLE2=Long Distance Love
TTITLE3=Day or Night
TTITLE4=One Love Stand
TTITLE5=Down below the Borderline
TTITLE6=Somebody's leavin' 
TTITLE7=Mercenary Territory
TTITLE8="Bonus Announcement"
TTITLE9=Don't bogart that Joint
TTITLE10=A political Blues
EXTD=
EXTT0=
EXTT1=
EXTT2=
EXTT3=
EXTT4=
EXTT5=
EXTT6=
EXTT7=
EXTT8=
EXTT9=
EXTT10=
PLAYORDER=
